<svg width="25" height="25" viewBox="0 0 25 25" fill="none" xmlns="http://www.w3.org/2000/svg">
<g clip-path="url(#clip0_6278_31140)">
<path d="M12.9 1.08189L23.375 5.50803C23.7583 5.66761 24 6.04555 24 6.45709V18.5429C24 18.9544 23.75 19.3324 23.375 19.492L12.9 23.9181C12.65 24.0273 12.3583 24.0273 12.1083 23.9181L1.625 19.5004C1.24167 19.3408 1 18.9628 1 18.5513V6.45709C1 6.04555 1.25 5.66761 1.625 5.50803L12.1083 1.08189C12.3583 0.972704 12.65 0.972704 12.9 1.08189Z" stroke="black" stroke-linecap="round" stroke-linejoin="round"/>
<path d="M18.6175 19.5V8.5L9 4" stroke="black" stroke-linecap="round" stroke-linejoin="round"/>
<path d="M3 7.00012L12.4995 10.7873L22 7.00012" stroke="black" stroke-linecap="round" stroke-linejoin="round"/>
<path d="M12.5 22.0906V10.7872" stroke="black" stroke-linecap="round" stroke-linejoin="round"/>
</g>
<defs>
<clipPath id="clip0_6278_31140">
<rect width="25" height="25" fill="white"/>
</clipPath>
</defs>
</svg>
