<svg width="20" height="22" viewBox="0 0 20 22" fill="none" xmlns="http://www.w3.org/2000/svg">
<path d="M18.7927 21.9999H0.417586C0.186786 21.9999 0 21.8199 0 21.5975C0 21.3751 0.186786 21.1951 0.417586 21.1951H18.7927C19.0235 21.1951 19.2103 21.3751 19.2103 21.5975C19.2103 21.8199 19.0235 21.9999 18.7927 21.9999Z" fill="white"/>
<path d="M19.6268 2.81857L17.2333 0.37831C16.7385 -0.126103 15.9351 -0.126103 15.4402 0.37831L13.9453 1.90241L14.5437 2.51247L17.5335 5.56067L18.1319 6.17073L19.6268 4.64663C20.1215 4.14222 20.1215 3.32309 19.6268 2.81857Z" fill="white"/>
<path d="M17.0376 6.0447L14.0708 3.01995L13.4771 2.41455L1.9059 14.2165C1.90176 14.2165 1.89751 14.225 1.89337 14.2293C1.86396 14.2592 1.84304 14.2977 1.82202 14.3405C1.81777 14.3491 1.81363 14.3576 1.80938 14.3662C1.80938 14.3705 1.80514 14.3747 1.801 14.3833L0.0218582 19.8254C-0.028467 19.9795 0.00933137 20.1506 0.122618 20.2661C0.202354 20.3474 0.311501 20.3902 0.420539 20.3902C0.462476 20.3902 0.508662 20.3816 0.554848 20.3687L5.89248 18.5547C5.90087 18.5503 5.90512 18.5461 5.90926 18.5461C5.91765 18.5418 5.92603 18.5375 5.93442 18.5332C5.97636 18.5118 6.01416 18.4905 6.04357 18.4605C6.04782 18.4561 6.05609 18.4519 6.05609 18.4476L17.6313 6.6501L17.0376 6.0447ZM2.31296 18.8671L1.49469 18.0328L2.38431 15.3074L4.98598 17.96L2.31296 18.8671Z" fill="white"/>
</svg>
