<svg width="60" height="60" viewBox="0 0 60 60" fill="none" xmlns="http://www.w3.org/2000/svg">
<circle cx="30" cy="30" r="29.5" fill="#94693C" stroke="white"/>
<g clip-path="url(#clip0_6558_16014)">
<path d="M42.71 39.2506C42.6573 39.0638 42.7018 38.8635 42.8284 38.7129C44.2192 37.0615 45.0394 34.9448 44.9984 32.6402C44.9082 27.6315 40.6864 23.5442 35.5015 23.4469C29.9967 23.3439 25.5124 27.6745 25.6191 32.9922C25.7198 38.0168 29.9779 42.1041 35.1804 42.1686C35.9245 42.1777 36.6498 42.1064 37.347 41.9615C37.5356 41.923 37.7301 41.9264 37.9176 41.9683L43.5384 43.957C44.1243 44.1642 44.6809 43.5914 44.4301 43.0402L42.71 39.2506Z" fill="white"/>
<path d="M24.4472 33.0137C24.391 30.1703 25.4936 27.4877 27.5535 25.4593C29.6134 23.4309 32.3682 22.3138 35.3092 22.3138C35.3819 22.3138 35.4522 22.3138 35.5248 22.316C36.3521 22.3319 37.1641 22.4394 37.9515 22.6307C35.976 18.643 31.7249 15.9106 26.8224 16.0022C20.3696 16.1234 15.1132 21.2124 15.0019 27.447C14.9503 30.3141 15.9709 32.9503 17.7027 35.0058C17.8609 35.1926 17.9148 35.4416 17.8504 35.6748L15.7096 40.3926C15.3979 41.0797 16.0904 41.7916 16.8204 41.5335L23.8168 39.0581C24.05 39.006 24.2926 39.0015 24.5269 39.0501C25.2604 39.2018 26.0197 39.2878 26.7954 39.3048C25.3214 37.5119 24.4941 35.3205 24.4484 33.0148L24.4472 33.0137Z" fill="white"/>
</g>
<defs>
<clipPath id="clip0_6558_16014">
<rect width="30" height="28" fill="white" transform="translate(15 16)"/>
</clipPath>
</defs>
</svg>
