<svg width="14" height="14" viewBox="0 0 14 14" fill="none" xmlns="http://www.w3.org/2000/svg">
<path d="M7 0C3.13394 0 0 3.13394 0 7C0 10.8661 3.13394 14 7 14C10.8661 14 14 10.8661 14 7C14 3.13394 10.8661 0 7 0ZM9.58936 9.94257C9.53927 9.99266 9.47376 10.0183 9.40826 10.0183C9.34275 10.0183 9.27725 9.99266 9.22716 9.94257L6.83945 7.55486V2.56881C6.83945 2.42752 6.95505 2.31193 7.09633 2.31193C7.23761 2.31193 7.35321 2.42752 7.35321 2.56881V7.34294L9.58936 9.57908C9.68954 9.67927 9.68954 9.84239 9.58936 9.94257Z" fill="#94693C"/>
</svg>
