<svg width="12" height="16" viewBox="0 0 12 16" fill="none" xmlns="http://www.w3.org/2000/svg">
<g clip-path="url(#clip0_6558_16040)">
<path d="M9.48438 2.54637H12.0011L9.48438 0.0219727V2.54637Z" fill="#94693C"/>
<path d="M9.11854 3.27588C8.91429 3.27588 8.7538 3.11537 8.7538 2.91108V0H0.729483C0.328267 0 0 0.328317 0 0.729594V15.2777C0 15.679 0.328267 16.0073 0.729483 16.0073H11.2778C11.679 16.0073 12.0073 15.679 12.0073 15.2777V3.27588H9.11854ZM9.4614 11.0825H2.5386C2.33435 11.0825 2.17386 10.922 2.17386 10.7177C2.17386 10.5135 2.33435 10.3529 2.5386 10.3529H9.4541C9.65836 10.3529 9.81884 10.5135 9.81884 10.7177C9.81884 10.922 9.65836 11.0825 9.4541 11.0825H9.4614ZM9.4614 8.76972H2.5386C2.33435 8.76972 2.17386 8.60921 2.17386 8.40492C2.17386 8.20064 2.33435 8.04013 2.5386 8.04013H9.4541C9.65836 8.04013 9.81884 8.20064 9.81884 8.40492C9.81884 8.60921 9.65836 8.76972 9.4541 8.76972H9.4614ZM9.4614 6.45691H2.5386C2.33435 6.45691 2.17386 6.2964 2.17386 6.09211C2.17386 5.88782 2.33435 5.72731 2.5386 5.72731H9.4541C9.65836 5.72731 9.81884 5.88782 9.81884 6.09211C9.81884 6.2964 9.65836 6.45691 9.4541 6.45691H9.4614Z" fill="#94693C"/>
</g>
<defs>
<clipPath id="clip0_6558_16040">
<rect width="12" height="16" fill="white"/>
</clipPath>
</defs>
</svg>
