<svg width="13" height="14" viewBox="0 0 13 14" fill="none" xmlns="http://www.w3.org/2000/svg">
<g clip-path="url(#clip0_6558_16047)">
<path d="M6.58922 6.52531C8.35292 6.52531 9.78869 5.06187 9.78869 3.2631C9.78869 1.46432 8.35292 0 6.58922 0C4.82553 0 3.39062 1.46344 3.39062 3.2631C3.39062 5.06276 4.82553 6.52531 6.58922 6.52531Z" fill="#94693C"/>
<path d="M11.3482 9.37775C10.2829 8.29123 8.87227 7.69312 7.37577 7.69312H5.62336C4.12686 7.69312 2.71625 8.29123 1.65092 9.37775C0.586453 10.4643 0 11.9029 0 13.4292C0 13.7194 0.231632 13.9574 0.516183 13.9592C2.86373 13.9769 6.51258 13.9999 9.38412 13.9999C10.6169 13.9999 11.7065 13.9955 12.4873 13.9848C12.7701 13.9813 13 13.7433 13 13.4549V13.4292C13 11.9029 12.4135 10.4643 11.3482 9.37775Z" fill="#94693C"/>
</g>
<defs>
<clipPath id="clip0_6558_16047">
<rect width="13" height="14" fill="white"/>
</clipPath>
</defs>
</svg>
