<svg width="14" height="10" viewBox="0 0 14 10" fill="none" xmlns="http://www.w3.org/2000/svg">
<g clip-path="url(#clip0_6558_16043)">
<path d="M13.3664 0H0.633635C0.286803 0 0 0.290737 0 0.642326V9.35091C0 9.70926 0.286803 9.99324 0.633635 9.99324H13.3597C13.7132 9.99324 13.9933 9.7025 13.9933 9.35091V0.642326C13.9933 0.283976 13.7065 0 13.3597 0H13.3664ZM4.71558 6.49763L1.96093 8.22177C1.90758 8.25558 1.84755 8.2691 1.78752 8.2691C1.67413 8.2691 1.56741 8.21501 1.50071 8.10683C1.40734 7.95132 1.45403 7.74172 1.60743 7.6403L4.36208 5.91616C4.51548 5.81474 4.72225 5.86883 4.8223 6.02434C4.91567 6.17985 4.86899 6.38945 4.71558 6.49087V6.49763ZM7.08337 5.80798C7.02334 5.80798 6.95665 5.78769 6.90329 5.75389L1.64745 2.3597C1.49404 2.25828 1.44736 2.04868 1.5474 1.89317C1.64745 1.73766 1.85422 1.69033 2.00762 1.79175L7.08337 5.07776L12.1591 1.79175C12.3125 1.69033 12.5193 1.73766 12.6193 1.89317C12.7194 2.04868 12.6727 2.25828 12.5193 2.3597L7.26346 5.76065C7.2101 5.79446 7.1434 5.81474 7.08337 5.81474V5.80798ZM12.6727 8.10683C12.6127 8.20825 12.4993 8.2691 12.3859 8.2691C12.3259 8.2691 12.2658 8.25558 12.2125 8.22177L9.45784 6.49763C9.29776 6.39621 9.25107 6.19337 9.35112 6.0311C9.45117 5.86883 9.65126 5.8215 9.81134 5.92292L12.566 7.64706C12.7261 7.74848 12.7727 7.95132 12.6727 8.11359V8.10683Z" fill="#94693C"/>
</g>
<defs>
<clipPath id="clip0_6558_16043">
<rect width="14" height="10" fill="white"/>
</clipPath>
</defs>
</svg>
