<svg width="13" height="13" viewBox="0 0 13 13" fill="none" xmlns="http://www.w3.org/2000/svg">
<g clip-path="url(#clip0_6558_16045)">
<path d="M2.18093 -3.44212e-05C1.98056 -3.44212e-05 1.79233 0.0606565 1.62839 0.1699L1.5616 0.212384C0.735814 0.758602 0.237916 1.408 0.067902 2.14843C-0.0899681 2.85244 -0.302485 5.45001 3.61998 9.37065C6.77738 12.5266 9.05436 12.9939 10.1352 12.9939C10.3902 12.9939 10.627 12.9696 10.8456 12.9211C11.5864 12.7511 12.236 12.2535 12.7825 11.4281L12.825 11.3613C12.9768 11.1489 13.0315 10.8819 12.9768 10.6209C12.9282 10.3599 12.7764 10.1354 12.5639 9.98969C11.7017 9.41313 10.9124 8.9094 10.3355 8.53918L10.1898 8.44208C10.0198 8.33283 9.7587 8.26607 9.51582 8.26607C9.29116 8.26607 9.15758 8.32069 9.109 8.37532C8.99971 8.49063 8.79934 8.73339 8.65361 8.91547C8.48359 9.13395 8.16178 9.54665 7.57888 9.54665C7.30564 9.54665 7.02026 9.45562 6.70452 9.26747C6.13983 8.93367 5.75123 8.58773 5.1076 8.01724L4.9558 7.86551C4.39112 7.22826 4.05109 6.83984 3.71713 6.28148C3.04315 5.14049 3.75963 4.57606 4.0693 4.33937C4.25146 4.19978 4.49434 3.99343 4.6097 3.88419C4.76758 3.73246 4.7615 3.14983 4.53684 2.80389L4.45183 2.6643C4.08145 2.08773 3.5714 1.29268 2.99457 0.424802C2.81241 0.151693 2.50882 -0.00610352 2.17486 -0.00610352L2.18093 -3.44212e-05Z" fill="#94693C"/>
</g>
<defs>
<clipPath id="clip0_6558_16045">
<rect width="13" height="13" fill="white"/>
</clipPath>
</defs>
</svg>
