<svg width="28" height="28" viewBox="0 0 28 28" fill="none" xmlns="http://www.w3.org/2000/svg">
<g clip-path="url(#clip0_3257_82237)">
<path fill-rule="evenodd" clip-rule="evenodd" d="M14.0001 21.2093C17.9787 21.2093 21.2095 17.9786 21.2095 13.9999C21.2095 10.0213 17.9787 6.79053 14.0001 6.79053C10.0214 6.79053 6.79065 10.0213 6.79065 13.9999C6.79065 17.9786 10.0214 21.2093 14.0001 21.2093ZM14.0001 9.83184C16.2935 9.83184 18.1681 11.6965 18.1681 13.99C18.1681 16.2834 16.3035 18.158 14.0001 18.158C11.6966 18.158 9.83196 16.2934 9.83196 13.99C9.83196 11.6865 11.6966 9.83184 14.0001 9.83184Z" fill="#94693C"/>
<path fill-rule="evenodd" clip-rule="evenodd" d="M21.4388 8.27647C22.3761 8.27647 23.1439 7.50866 23.1439 6.57134C23.1439 5.63402 22.3761 4.86621 21.4388 4.86621C20.5014 4.86621 19.7336 5.63402 19.7336 6.57134C19.7336 7.50866 20.5014 8.27647 21.4388 8.27647Z" fill="#94693C"/>
<path fill-rule="evenodd" clip-rule="evenodd" d="M20.9302 28C24.8291 28 27.99 24.8291 27.99 20.9402V7.05983C27.99 3.16097 24.8191 0 20.9302 0H7.05983C3.17094 0 0 3.17094 0 7.05983V20.9302C0 24.8291 3.17094 27.99 7.05983 27.99H20.9302V28ZM3.05128 20.9302V7.05983C3.05128 4.84615 4.85613 3.04131 7.0698 3.04131H20.9402C23.1538 3.04131 24.9587 4.84615 24.9587 7.05983V20.9302C24.9587 23.1439 23.1538 24.9487 20.9402 24.9487H7.05983C4.84615 24.9487 3.04131 23.1439 3.04131 20.9302H3.05128Z" fill="#94693C"/>
</g>
<defs>
<clipPath id="clip0_3257_82237">
<rect width="28" height="28" fill="white"/>
</clipPath>
</defs>
</svg>
