<svg width="28" height="28" viewBox="0 0 28 28" fill="none" xmlns="http://www.w3.org/2000/svg">
<g clip-path="url(#clip0_3257_82236)">
<path d="M27.25 12.65C27.25 6.78 21.36 2 14.13 2C6.9 2 1 6.78 1 12.65C1 17.92 5.67 22.32 11.98 23.16C12.41 23.25 12.99 23.44 13.14 23.81C13.27 24.14 13.23 24.66 13.18 25C13.18 25 13.03 25.93 12.99 26.12C12.93 26.45 12.73 27.42 14.13 26.83C15.53 26.24 21.69 22.38 24.44 19.21C26.34 17.12 27.25 15.01 27.25 12.66V12.65ZM9.49 15.79C9.49 15.93 9.38 16.05 9.23 16.05H5.55C5.48 16.05 5.42 16.02 5.37 15.98C5.33 15.93 5.3 15.87 5.3 15.8V10.08C5.3 9.94 5.41 9.82 5.56 9.82H6.48C6.62 9.82 6.74 9.93 6.74 10.08V14.62H9.24C9.38 14.62 9.5 14.73 9.5 14.88V15.8L9.49 15.79ZM11.71 15.79C11.71 15.93 11.6 16.05 11.45 16.05H10.53C10.39 16.05 10.27 15.94 10.27 15.79V10.07C10.27 9.93 10.38 9.81 10.53 9.81H11.45C11.59 9.81 11.71 9.92 11.71 10.07V15.79ZM18.05 15.79C18.05 15.93 17.94 16.05 17.79 16.05H16.87C16.87 16.05 16.83 16.05 16.8 16.05C16.8 16.05 16.79 16.05 16.78 16.05C16.78 16.05 16.78 16.05 16.77 16.05C16.77 16.05 16.77 16.05 16.76 16.05C16.76 16.05 16.75 16.05 16.74 16.05C16.72 16.03 16.69 16.01 16.68 15.99L14.06 12.45V15.85C14.06 15.99 13.95 16.11 13.8 16.11H12.88C12.74 16.11 12.62 16 12.62 15.85V10.13C12.62 9.99 12.73 9.87 12.88 9.87H13.8C13.8 9.87 13.8 9.87 13.81 9.87C13.81 9.87 13.81 9.87 13.82 9.87C13.82 9.87 13.82 9.87 13.83 9.87C13.83 9.87 13.83 9.87 13.84 9.87C13.84 9.87 13.85 9.87 13.86 9.87C13.86 9.87 13.86 9.87 13.87 9.87C13.87 9.87 13.87 9.87 13.88 9.87C13.88 9.87 13.88 9.87 13.89 9.87C13.89 9.87 13.89 9.87 13.9 9.88C13.9 9.88 13.91 9.89 13.92 9.9C13.92 9.9 13.93 9.92 13.94 9.93L16.56 13.47V10.07C16.56 9.93 16.67 9.81 16.82 9.81H17.74C17.88 9.81 18 9.92 18 10.07V15.79H18.05ZM23.13 10.99C23.13 11.13 23.02 11.25 22.87 11.25H20.37V12.22H22.87C23.01 12.22 23.13 12.33 23.13 12.48V13.4C23.13 13.54 23.02 13.66 22.87 13.66H20.37V14.63H22.87C23.01 14.63 23.13 14.74 23.13 14.89V15.81C23.13 15.95 23.02 16.07 22.87 16.07H19.19C19.12 16.07 19.06 16.04 19.01 16C18.97 15.95 18.94 15.89 18.94 15.82V10.1C18.94 10.03 18.97 9.97 19.01 9.92C19.06 9.88 19.12 9.85 19.19 9.85H22.87C23.01 9.85 23.13 9.96 23.13 10.11V11.03V10.99Z" fill="#94693C"/>
</g>
<defs>
<clipPath id="clip0_3257_82236">
<rect width="26.25" height="25.01" fill="white" transform="translate(1 2)"/>
</clipPath>
</defs>
</svg>
