<?xml version="1.0" encoding="utf-8"?>
<!-- Generator: Adobe Illustrator 28.0.0, SVG Export Plug-In . SVG Version: 6.00 Build 0)  -->
<svg version="1.1" id="圖層_1" xmlns="http://www.w3.org/2000/svg" xmlns:xlink="http://www.w3.org/1999/xlink" x="0px" y="0px"
	 viewBox="0 0 139 35" style="enable-background:new 0 0 139 35;" xml:space="preserve">
<style type="text/css">
	.st0{clip-path:url(#SVGID_00000168098827958258363850000001354887120721159343_);}
	.st1{fill:#FFFFFF;}
</style>
<g>
	<defs>
		<rect id="SVGID_1_" width="139" height="35"/>
	</defs>
	<clipPath id="SVGID_00000032645638525823477240000001696605760073136056_">
		<use xlink:href="#SVGID_1_"  style="overflow:visible;"/>
	</clipPath>
	<g style="clip-path:url(#SVGID_00000032645638525823477240000001696605760073136056_);">
		<path class="st1" d="M65.6,0h-0.5c-0.6,0-1.3,0.2-1.7,0.7c-0.3,0.4-0.6,0.8-0.7,1.3H46.6c-0.1-0.5-0.3-1-0.7-1.3
			C45.4,0.3,44.8,0,44.2,0h-0.5v2.1h-4.6v3h4.6l0,3.9h-4.6v3h4.6l0,8.8c0,0.5,0.4,0.9,0.9,0.9h8.6v1.6l-14.1,0v3h11
			c-3.4,2.1-7,3.7-10.7,4.6l-0.4,0.1v3.3l0.6-0.1c4.1-0.8,8.7-2.9,13.5-6.2v7h0.5c0.7,0,1.3-0.3,1.7-0.7c0.5-0.5,0.7-1.1,0.7-1.7
			l0-4.4c4.1,2.7,8.6,4.7,13.6,5.8l0.6,0.1v-3.2l-0.4-0.1c-4.1-1.1-7.8-2.5-10.9-4.4h11.2v-3H56.1v-1.6H68v-2.9H46.6v-6.8h4.7l0,4.8
			h11.9c0,0,0.1,0,0.1,0c0.4,0,0.9-0.2,1.2-0.4c0.1,0,0.1-0.1,0.1-0.1l0.1-0.1l0,0c0,0,0.1-0.1,0.1-0.1c0.4-0.4,0.7-1,0.7-1.7
			c0,0,0,0,0,0v-2.4h4.7V9h-4.7V5.1h4.7v-3h-4.7V0z M51.3,6.1V9h-4.7V5.1h16.1V9h-8.5V6.1H51.3z M62.7,13.9l-8.5,0v-1.9h8.5V13.9z"
			/>
		<path class="st1" d="M10.5,13.3c0.5-0.5,0.7-1.1,0.7-1.7l0-10.4h-0.5C10,1.1,9.4,1.4,9,1.8C8.5,2.3,8.2,2.9,8.2,3.6V14h0.5
			C9.4,14,10,13.8,10.5,13.3"/>
		<path class="st1" d="M2.9,14h0.5V3.6c0-0.7-0.3-1.3-0.7-1.7C2.2,1.4,1.5,1.1,0.9,1.1H0.4v10.4c0,0.7,0.2,1.3,0.7,1.7
			C1.6,13.8,2.2,14,2.9,14"/>
		<path class="st1" d="M33.6,1.1H12.7c-0.5,0-0.9,0.4-0.9,0.9v5.2h3V4.1h7l0,1.4h-6.1v3h6v1.2l-6.9,0c-0.5,0-0.9,0.4-0.9,0.9V25
			c0,0.5,0.4,0.9,0.9,0.9h6.9v1.8h-7.8v3.1h7.8V35h0.5c0.7,0,1.3-0.3,1.7-0.7c0.5-0.5,0.7-1.1,0.7-1.7v-1.7h7.8v-3.1h-7.8v-1.8h6.9
			c0.5,0,0.9-0.4,0.9-0.9V10.6c0-0.5-0.4-0.9-0.9-0.9l-6.9,0V8.5h6v-3l-6,0V4.1h6.9v3.2h3V2C34.5,1.5,34.1,1.1,33.6,1.1 M16.9,12.7
			h4.8v3.7h-4.8L16.9,12.7L16.9,12.7z M16.9,23v-3.6h4.8V23L16.9,23L16.9,23z M29.4,23h-4.8v-3.6h4.8L29.4,23L29.4,23z M29.4,16.3
			h-4.8v-3.7h4.8L29.4,16.3L29.4,16.3z"/>
		<path class="st1" d="M7.3,15.3l0-11.7c0-0.7-0.2-1.3-0.7-1.7C6.1,1.4,5.5,1.1,4.8,1.1H4.3v14.2H2.9H0v2.9h2v4.2
			c0,3-0.7,7.9-1.7,10.6l-0.2,0.7h3.4l0.1-0.3C4.4,30.8,4.9,26,5,22.6v-4.4h1.3v12v0l0,0.1c0,0.7,0.3,1.2,0.7,1.7
			c0.1,0,0.1,0.1,0.2,0.1c0,0,0.1,0.1,0.2,0.1c0,0,0,0,0.1,0c0.4,0.3,0.9,0.4,1.3,0.4h2.9v-3.1H9.3l0-11.5h2.3v-2.9H7.3L7.3,15.3z"
			/>
		<path class="st1" d="M101.6,21l-5.9,2.8c-0.6,0.3-1,0.8-1.3,1.4c-0.2,0.6-0.2,1.3,0.1,1.9l0.2,0.4l5.9-2.8c0.6-0.3,1-0.8,1.3-1.4
			c0.2-0.6,0.2-1.3-0.1-1.9L101.6,21L101.6,21z"/>
		<path class="st1" d="M86.4,19.7h14.8c0.5,0,0.9-0.4,0.9-0.9V3c0-0.5-0.4-0.9-0.9-0.9H89.6c-0.1-0.5-0.3-1-0.7-1.3
			C88.5,0.3,87.9,0,87.2,0h-0.5v2.1h-11c-0.5,0-0.9,0.4-0.9,0.9l0,29.4l0,0l0,0.1c0,0.7,0.3,1.2,0.7,1.7c0.1,0,0.1,0.1,0.2,0.1
			c0,0,0.1,0.1,0.2,0.1c0,0,0,0,0.1,0c0.4,0.3,0.9,0.4,1.3,0.4h9.3v-3.1h-8.6V19.7h4.9C86.8,28.5,93,33.3,102,35v-3.2
			C96.9,30.5,89.7,27.4,86.4,19.7L86.4,19.7z M77.9,5.1H99v4.3H77.9L77.9,5.1L77.9,5.1z M77.9,12.4H99v4.3H77.9V12.4z"/>
		<path class="st1" d="M138.3,17.8c-0.1,0-0.2,0-0.3,0h-13.2c-0.1,0-0.2,0-0.3,0c-0.4,0.1-0.7,0.5-0.7,0.9v15.4
			c0,0.5,0.4,0.9,0.9,0.9H139V18.7C139,18.3,138.7,17.9,138.3,17.8z M136,32h-4.5H127V20.7h9L136,32L136,32z"/>
		<path class="st1" d="M121,17.8c-0.1,0-0.2,0-0.3,0h-13.2c-0.1,0-0.2,0-0.3,0c-0.4,0.1-0.7,0.5-0.7,0.9v15.4c0,0.5,0.4,0.9,0.9,0.9
			h14.1V18.7C121.6,18.3,121.3,17.9,121,17.8z M118.6,32h-4.5h-4.5V20.7h9L118.6,32L118.6,32z"/>
		<path class="st1" d="M111,15.5h24.4V1.8c0-0.4-0.3-0.8-0.7-0.9c-0.1,0-0.2,0-0.3,0H111c-0.1,0-0.2,0-0.3,0
			c-0.4,0.1-0.7,0.5-0.7,0.9v12.8C110.1,15.1,110.5,15.5,111,15.5L111,15.5z M132.4,3.8v8.7h-9.6h-9.6V3.8H132.4L132.4,3.8z"/>
	</g>
</g>
</svg>
