<svg width="27" height="25" viewBox="0 0 27 25" fill="none" xmlns="http://www.w3.org/2000/svg">
<path d="M9.03711 4.0708H25.0988C25.9036 4.0708 26.4704 4.84423 26.2323 5.59524L23.954 12.87C23.7613 13.4865 23.1945 13.9012 22.5371 13.9012H12.3016" stroke="white" stroke-linecap="round" stroke-linejoin="round"/>
<path d="M23.6474 18.2616H10.9748C10.4534 18.2616 10 17.9253 9.84131 17.4321L5.03526 1.60487C4.88791 1.11166 4.42317 0.775391 3.90176 0.775391H1" stroke="white" stroke-linecap="round" stroke-linejoin="round"/>
<path d="M12.7194 24.2248C13.696 24.2248 14.4877 23.4419 14.4877 22.4762C14.4877 21.5104 13.696 20.7275 12.7194 20.7275C11.7429 20.7275 10.9512 21.5104 10.9512 22.4762C10.9512 23.4419 11.7429 24.2248 12.7194 24.2248Z" stroke="white" stroke-linecap="round" stroke-linejoin="round"/>
<path d="M21.8796 24.2248C22.8562 24.2248 23.6479 23.4419 23.6479 22.4762C23.6479 21.5104 22.8562 20.7275 21.8796 20.7275C20.903 20.7275 20.1113 21.5104 20.1113 22.4762C20.1113 23.4419 20.903 24.2248 21.8796 24.2248Z" stroke="white" stroke-linecap="round" stroke-linejoin="round"/>
</svg>
