<svg width="32" height="30" viewBox="0 0 32 30" fill="none" xmlns="http://www.w3.org/2000/svg">
<path d="M32 12.7749C32 5.73371 24.8198 0 16.0061 0C7.19238 0 0 5.73371 0 12.7749C0 19.0964 5.69295 24.3743 13.3851 25.3818C13.9093 25.4898 14.6164 25.7177 14.7992 26.1615C14.9577 26.5574 14.909 27.1811 14.848 27.589C14.848 27.589 14.6651 28.7045 14.6164 28.9324C14.5432 29.3283 14.2994 30.4918 16.0061 29.7841C17.7128 29.0764 25.2221 24.4462 28.5745 20.6437C30.8907 18.1367 32 15.6058 32 12.7869V12.7749ZM10.3497 16.5414C10.3497 16.7093 10.2156 16.8533 10.0328 16.8533H5.54667C5.46133 16.8533 5.38819 16.8173 5.32724 16.7693C5.27848 16.7093 5.24191 16.6373 5.24191 16.5534V9.69212C5.24191 9.52419 5.376 9.38025 5.55886 9.38025H6.68038C6.85105 9.38025 6.99733 9.5122 6.99733 9.69212V15.1379H10.045C10.2156 15.1379 10.3619 15.2699 10.3619 15.4498V16.5534L10.3497 16.5414ZM13.056 16.5414C13.056 16.7093 12.9219 16.8533 12.739 16.8533H11.6175C11.4469 16.8533 11.3006 16.7213 11.3006 16.5414V9.68013C11.3006 9.51219 11.4347 9.36825 11.6175 9.36825H12.739C12.9097 9.36825 13.056 9.5002 13.056 9.68013V16.5414ZM20.7848 16.5414C20.7848 16.7093 20.6507 16.8533 20.4678 16.8533H19.3463C19.3463 16.8533 19.2975 16.8533 19.261 16.8533C19.261 16.8533 19.2488 16.8533 19.2366 16.8533C19.2366 16.8533 19.2366 16.8533 19.2244 16.8533C19.2244 16.8533 19.2244 16.8533 19.2122 16.8533C19.2122 16.8533 19.2 16.8533 19.1878 16.8533C19.1634 16.8293 19.1269 16.8053 19.1147 16.7813L15.9208 12.535V16.6134C15.9208 16.7813 15.7867 16.9252 15.6038 16.9252H14.4823C14.3116 16.9252 14.1653 16.7933 14.1653 16.6134V9.7521C14.1653 9.58417 14.2994 9.44022 14.4823 9.44022H15.6038C15.6038 9.44022 15.6038 9.44022 15.616 9.44022C15.616 9.44022 15.616 9.44022 15.6282 9.44022C15.6282 9.44022 15.6282 9.44022 15.6404 9.44022C15.6404 9.44022 15.6404 9.44022 15.6526 9.44022C15.6526 9.44022 15.6648 9.44022 15.677 9.44022C15.677 9.44022 15.677 9.44022 15.6891 9.44022C15.6891 9.44022 15.6891 9.44022 15.7013 9.44022C15.7013 9.44022 15.7013 9.44022 15.7135 9.44022C15.7135 9.44022 15.7135 9.44022 15.7257 9.45222C15.7257 9.45222 15.7379 9.46421 15.7501 9.47621C15.7501 9.47621 15.7623 9.5002 15.7745 9.5122L18.9684 13.7585V9.68013C18.9684 9.51219 19.1025 9.36825 19.2853 9.36825H20.4069C20.5775 9.36825 20.7238 9.5002 20.7238 9.68013V16.5414H20.7848ZM26.9775 10.7837C26.9775 10.9516 26.8434 11.0956 26.6606 11.0956H23.613V12.2591H26.6606C26.8312 12.2591 26.9775 12.391 26.9775 12.571V13.6745C26.9775 13.8425 26.8434 13.9864 26.6606 13.9864H23.613V15.1499H26.6606C26.8312 15.1499 26.9775 15.2819 26.9775 15.4618V16.5654C26.9775 16.7333 26.8434 16.8772 26.6606 16.8772H22.1745C22.0891 16.8772 22.016 16.8413 21.955 16.7933C21.9063 16.7333 21.8697 16.6613 21.8697 16.5774V9.71611C21.8697 9.63215 21.9063 9.56018 21.955 9.5002C22.016 9.45222 22.0891 9.41623 22.1745 9.41623H26.6606C26.8312 9.41623 26.9775 9.54818 26.9775 9.72811V10.8317V10.7837Z" fill="white"/>
</svg>
