<svg width="139" height="35" viewBox="0 0 139 35" fill="none" xmlns="http://www.w3.org/2000/svg">
<g clip-path="url(#clip0_1076_21677)">
<path d="M65.5902 0H65.1031C64.4591 0 63.8478 0.249953 63.3738 0.723548C63.024 1.08861 62.7854 1.55892 62.7004 2.0654H46.5741C46.4859 1.5655 46.2571 1.09848 45.8942 0.723548C45.4332 0.25982 44.8121 0 44.1518 0H43.6843V2.06211H39.1044V5.09773H43.6843L43.6778 9.01475H39.1044V12.0602H43.6745L43.681 20.8481C43.681 21.3545 44.0766 21.7656 44.5735 21.7656H53.1809V23.3311L39.1076 23.3377V26.3733H50.1243C46.7409 28.521 43.1678 30.0733 39.4705 30.9876L39.1044 31.0665V34.3455L39.6765 34.2304C43.8053 33.4082 48.3427 31.3231 53.1809 28.0243V34.9901H53.6614C54.3218 34.9967 54.9298 34.7237 55.3908 34.26C55.8484 33.7996 56.1034 33.1747 56.1034 32.5268L56.0969 28.1362C60.1832 30.8363 64.7435 32.7965 69.6733 33.9574L70.265 34.1054V30.8791L69.9054 30.7837C65.7831 29.7214 62.1348 28.2414 59.0554 26.3799H70.265V23.341H56.0969V21.7722H67.9995V18.832H46.6036V12.0668H51.275L51.2816 16.8883H63.158C63.1907 16.8883 63.23 16.8883 63.2986 16.8751C63.7432 16.8587 64.1747 16.7107 64.5212 16.4673C64.5735 16.4377 64.616 16.4081 64.6455 16.3686L64.7304 16.3029L64.7566 16.2798C64.7958 16.2437 64.8514 16.2075 64.8776 16.1647C65.3222 15.7273 65.5706 15.1353 65.6 14.4775C65.6 14.4677 65.6098 14.4447 65.6098 14.4282V12.0668H70.2682V9.02462H65.6V5.11088H70.265V2.06211H65.5902V0ZM51.2652 6.12385V9.01475H46.597V5.09773H62.671V9.01475H54.1878V6.12385H51.2652ZM62.671 13.9415L54.1943 13.9513V12.0602H62.671V13.9415Z" fill="#94693C"/>
<path d="M10.4511 13.2936C10.9186 12.8266 11.1638 12.2083 11.1638 11.5538L11.1572 1.11499H10.68C10.0327 1.11499 9.41157 1.3781 8.95064 1.84183C8.4897 2.29898 8.23471 2.92715 8.23145 3.58492V14.027H8.72834C9.37888 14.027 9.99019 13.7639 10.4479 13.2936" fill="#94693C"/>
<path d="M2.85061 14.0237H3.33116V3.58484C3.33116 2.92706 3.0729 2.29889 2.60543 1.84174C2.1543 1.37801 1.54299 1.11491 0.889179 1.11819H0.411897V11.5504C0.40209 12.2082 0.653807 12.8265 1.11474 13.2935C1.57568 13.7606 2.1968 14.027 2.85388 14.027" fill="#94693C"/>
<path d="M33.6254 1.11816H12.746C12.2426 1.11816 11.8307 1.52598 11.8307 2.03247V7.22886H14.8546V4.06827H21.8242L21.8176 5.44959H15.7405V8.49836H21.7V9.70537L14.8121 9.71194C14.3021 9.71194 13.8935 10.1231 13.8935 10.6361V25.0183C13.8935 25.5215 14.2988 25.926 14.8121 25.9293H21.6967V27.7678H13.8935V30.8231H21.7V35.0032H22.187C22.8441 35.0032 23.4554 34.7303 23.9196 34.2665C24.3806 33.7962 24.629 33.1746 24.6225 32.53V30.8231H32.4682V27.7678H24.6225V25.9293H31.5561C32.053 25.9293 32.4649 25.5215 32.4649 25.0183V10.6361C32.4649 10.1296 32.053 9.71194 31.5529 9.71194L24.6192 9.70537V8.49836H30.6081V5.45616L24.6192 5.44959V4.06827H31.5071V7.22886H34.5244V2.03247C34.5244 1.52598 34.1125 1.11816 33.6156 1.11816M16.901 12.6653H21.6934V16.3193H16.8977V12.6653H16.901ZM16.901 22.9792V19.368H21.6967V22.9825H16.901V22.9792ZM29.4411 22.9792H24.6192V19.368H29.4476V22.9792H29.4411ZM29.4411 16.3193H24.6159V12.6686H29.4443V16.316L29.4411 16.3193Z" fill="#94693C"/>
<path d="M7.25075 15.3028L7.24421 3.58456C7.24421 2.93337 6.99904 2.31506 6.5381 1.84476C6.07063 1.37774 5.45931 1.11792 4.80223 1.11792H4.32822V15.3028H2.89311H0V18.2167H1.98431V22.3771C1.98431 25.3469 1.31416 30.3065 0.304022 32.9573L0.0588429 33.6217H3.44885L3.55673 33.2895C4.44264 30.7998 4.8905 25.9817 5.01145 22.6205V18.2496H6.27984V30.2802V30.3262L6.28638 30.3789C6.32234 31.0301 6.5806 31.6286 7.02519 32.0825C7.07749 32.1285 7.12653 32.1746 7.18537 32.214C7.18537 32.214 7.33248 32.3489 7.34882 32.3522C7.3619 32.3588 7.37498 32.3884 7.40113 32.3949C7.79668 32.6613 8.25435 32.8093 8.71529 32.8324H11.5921V29.754H9.3266L9.33641 18.22H11.5921V15.3028H7.24748H7.25075Z" fill="#94693C"/>
<path d="M101.605 20.9763L95.6883 23.7521C95.0901 24.0185 94.6422 24.5118 94.4134 25.1268C94.1878 25.7451 94.2107 26.4227 94.4886 27.0212L94.6912 27.4586L100.615 24.6796C101.206 24.4 101.664 23.9034 101.877 23.2785C102.105 22.6701 102.083 22.0024 101.801 21.4071L101.602 20.9697L101.605 20.9763Z" fill="#94693C"/>
<path d="M86.3617 19.7298H101.121C101.618 19.7298 102.03 19.3219 102.03 18.8187V2.98948C102.03 2.483 101.618 2.06532 101.118 2.06532H89.6406C89.5588 1.55883 89.3202 1.08853 88.9475 0.723464C88.4964 0.263024 87.8851 -8.45585e-05 87.2313 0.0032043H86.754V2.06861H75.7471C75.2371 2.06861 74.8285 2.47971 74.8285 2.99277L74.835 32.4412L74.8285 32.4872L74.835 32.5398C74.871 33.191 75.1292 33.7896 75.5738 34.2435C75.6261 34.2895 75.6752 34.3356 75.734 34.375C75.734 34.375 75.8811 34.5099 75.8975 34.5132C75.9105 34.5197 75.9236 34.5493 75.9498 34.5559C76.3453 34.8223 76.803 34.9703 77.2639 34.9933H86.5219V31.915H77.8752V19.7298H82.7821C86.8357 28.5242 93.024 33.3193 102.034 34.9933V31.7439C96.924 30.4876 89.7452 27.4487 86.365 19.7298H86.3617ZM77.8818 5.09764H98.9737V9.40933H77.8785V5.09764H77.8818ZM77.8818 12.3792H98.977V16.6909H77.8818V12.3792Z" fill="#94693C"/>
<path d="M138.34 17.8289C138.258 17.8059 138.173 17.7861 138.085 17.7861H124.888C124.799 17.7861 124.714 17.8026 124.633 17.8289C124.25 17.9407 123.975 18.2893 123.975 18.7103V34.0824C123.975 34.5856 124.381 34.9901 124.894 34.9934H138.997V18.7103C138.997 18.2893 138.719 17.9407 138.34 17.8289ZM135.976 32.0466H131.488H126.999V20.7461H135.979V32.0466H135.976Z" fill="#94693C"/>
<path d="M120.965 17.8289C120.883 17.8059 120.798 17.7861 120.71 17.7861H107.513C107.424 17.7861 107.339 17.8026 107.258 17.8289C106.875 17.9407 106.6 18.2893 106.6 18.7103V34.0824C106.6 34.5856 107.006 34.9901 107.519 34.9934H121.622V18.7103C121.622 18.2893 121.344 17.9407 120.965 17.8289ZM118.601 32.0466H114.113H109.624V20.7461H118.604V32.0466H118.601Z" fill="#94693C"/>
<path d="M111.017 15.5167H135.407V1.79892C135.407 1.37795 135.129 1.02933 134.75 0.917511C134.668 0.894489 134.583 0.874756 134.495 0.874756H111.014C110.925 0.874756 110.84 0.8912 110.759 0.917511C110.376 1.02933 110.102 1.37795 110.102 1.79892V14.6057C110.102 15.1089 110.507 15.5135 111.02 15.5167H111.017ZM132.387 3.83144V12.5699H122.753H113.122V3.83144H132.39H132.387Z" fill="#94693C"/>
</g>
<defs>
<clipPath id="clip0_1076_21677">
<rect width="139" height="35" fill="white"/>
</clipPath>
</defs>
</svg>
