<svg width="28" height="28" viewBox="0 0 28 28" fill="none" xmlns="http://www.w3.org/2000/svg">
<g clip-path="url(#clip0_3257_82245)">
<path d="M26.41 7.84023C26.11 6.73023 25.23 5.85023 24.12 5.55023C22.09 4.99023 13.97 4.99023 13.97 4.99023C13.97 4.99023 5.85 4.99023 3.82 5.52023C2.73 5.83023 1.83 6.73023 1.53 7.84023C1 9.87023 1 14.0802 1 14.0802C1 14.0802 1 18.3102 1.53 20.3202C1.83 21.4302 2.71 22.3102 3.82 22.6102C5.87 23.1702 13.97 23.1702 13.97 23.1702C13.97 23.1702 22.09 23.1702 24.12 22.6402C25.23 22.3402 26.11 21.4602 26.41 20.3502C26.94 18.3202 26.94 14.1102 26.94 14.1102C26.94 14.1102 26.96 9.88023 26.41 7.85023V7.84023ZM11.39 17.9702V10.1902L18.14 14.0802L11.39 17.9702Z" fill="#94693C"/>
</g>
<defs>
<clipPath id="clip0_3257_82245">
<rect width="25.94" height="18.16" fill="white" transform="translate(1 5)"/>
</clipPath>
</defs>
</svg>
